<?xml version="1.0" standalone="no"?>
<!DOCTYPE svg PUBLIC "-//W3C//DTD SVG 20010904//EN"
 "http://www.w3.org/TR/2001/REC-SVG-20010904/DTD/svg10.dtd">
<svg class="" version="1.0" xmlns="http://www.w3.org/2000/svg"
 width="40px" height="40px" viewBox="0 0 500.000000 500.000000"
 preserveAspectRatio="xMidYMid meet">
<metadata>
Created by potrace 1.16, written by Peter Selinger 2001-2019
</metadata>
<g transform="translate(0.000000,500.000000) scale(0.100000,-0.100000)"
fill="#de2a32" stroke="none">
<path d="M3671 4739 c-18 -11 -67 -48 -110 -82 -99 -81 -130 -99 -237 -143
-122 -49 -169 -80 -182 -121 -21 -67 12 -125 137 -248 28 -27 51 -58 51 -68 0
-10 5 -27 10 -38 14 -25 -18 -74 -55 -83 -14 -4 -25 -12 -25 -20 0 -7 -18 -25
-40 -40 -39 -25 -40 -28 -40 -81 0 -31 -7 -72 -15 -92 -14 -33 -14 -38 0 -45
13 -8 12 -14 -5 -48 -11 -22 -20 -50 -20 -64 0 -27 -23 -56 -44 -56 -8 0 -19
-7 -27 -16 -9 -11 -23 -14 -48 -10 -70 12 -86 12 -112 -1 -15 -7 -29 -23 -33
-35 -3 -13 -27 -38 -52 -57 -29 -22 -47 -44 -51 -63 -3 -17 -16 -34 -32 -43
-14 -7 -42 -29 -60 -49 -19 -20 -38 -36 -42 -36 -5 0 -25 -15 -45 -34 -43 -40
-124 -66 -205 -66 -30 -1 -126 -7 -214 -14 -156 -14 -210 -26 -335 -79 -23 -9
-90 -17 -195 -21 -143 -6 -165 -4 -210 13 -53 20 -56 24 -81 84 l-15 39 -118
-7 c-108 -7 -131 -5 -284 25 -151 29 -168 31 -182 17 -11 -11 -22 -14 -37 -8
-25 9 -28 14 -62 94 -19 42 -30 57 -45 57 -11 0 -22 4 -25 9 -7 10 -96 23
-191 26 -38 1 -81 5 -95 9 -18 5 -33 1 -51 -12 -16 -13 -34 -18 -52 -15 -31 6
-34 -7 -17 -69 8 -28 21 -43 55 -63 42 -24 63 -41 150 -122 17 -15 69 -48 117
-73 53 -27 88 -51 88 -61 0 -9 26 -26 71 -45 43 -18 74 -37 79 -49 9 -24 739
-420 905 -491 102 -44 118 -48 230 -56 228 -16 310 -25 398 -47 48 -11 99 -21
113 -21 25 0 55 -14 89 -41 11 -9 35 -19 54 -23 18 -3 62 -20 97 -37 59 -29
64 -34 64 -65 0 -26 7 -36 33 -53 46 -28 143 -166 151 -216 5 -28 20 -53 49
-83 56 -58 105 -82 166 -82 38 0 61 -7 100 -31 28 -18 51 -35 51 -39 0 -5 14
-22 30 -40 17 -18 30 -42 30 -54 0 -12 11 -37 25 -56 14 -19 25 -43 25 -55 0
-27 83 -106 136 -129 33 -14 46 -16 63 -6 25 13 61 5 61 -14 0 -20 34 -46 61
-46 52 0 194 -112 234 -185 56 -100 93 -143 141 -161 37 -14 52 -29 90 -86 54
-84 59 -143 20 -211 -20 -34 -23 -51 -19 -92 5 -43 10 -53 40 -72 19 -13 39
-23 44 -23 5 0 53 -18 107 -41 92 -39 100 -40 169 -34 39 4 87 15 107 26 20
10 43 19 51 19 10 0 15 10 15 29 0 16 7 34 15 41 8 7 15 18 15 24 0 6 7 24 15
40 12 22 14 47 9 100 -5 65 -3 80 30 171 39 107 43 135 24 136 -23 1 -58 57
-68 109 -5 29 -7 56 -4 61 3 5 11 72 18 148 11 133 11 141 -8 166 -12 18 -22
53 -27 99 -4 39 -17 107 -29 151 -28 104 -27 120 9 195 17 35 31 70 31 78 0
20 52 135 65 145 5 4 22 10 38 14 42 9 33 30 -18 37 -47 7 -66 23 -45 36 7 4
10 13 6 18 -4 6 -1 21 6 33 10 17 10 23 1 26 -19 7 -16 54 5 69 16 13 16 14
-5 20 -14 4 -26 18 -32 38 -5 17 -21 59 -35 93 -22 52 -24 66 -15 87 10 22 8
33 -12 71 -13 25 -32 48 -41 51 -10 3 -22 23 -28 47 -6 23 -15 53 -20 67 -15
40 -15 104 -1 138 12 29 11 38 -7 81 -15 36 -17 52 -9 60 8 8 8 14 -1 23 -7 7
-12 21 -12 32 0 12 -14 41 -30 66 -16 25 -30 54 -30 66 0 11 -10 29 -21 40
-41 36 -99 123 -99 147 0 14 -7 30 -15 37 -8 7 -15 27 -15 44 0 18 -5 37 -12
44 -6 6 -12 35 -12 64 -1 29 -7 64 -15 77 -8 15 -13 53 -12 102 1 47 -3 79 -9
79 -5 0 -10 12 -10 26 0 15 -10 34 -22 44 -18 15 -23 28 -23 68 0 50 -1 51
-57 92 -70 50 -73 68 -24 143 19 28 44 78 56 109 l21 57 -21 43 c-94 193 -179
298 -287 356 -52 27 -71 32 -129 32 -52 0 -77 -5 -103 -21z"/>
</g>
</svg>
