<?xml version="1.0" standalone="no"?>
<!DOCTYPE svg PUBLIC "-//W3C//DTD SVG 20010904//EN"
 "http://www.w3.org/TR/2001/REC-SVG-20010904/DTD/svg10.dtd">
<svg version="1.0" xmlns="http://www.w3.org/2000/svg"
 width="500.000000pt" height="500.000000pt" viewBox="0 0 500.000000 500.000000"
 preserveAspectRatio="xMidYMid meet">
<metadata>
Created by potrace 1.16, written by Peter Selinger 2001-2019
</metadata>
<g transform="translate(0.000000,500.000000) scale(0.100000,-0.100000)"
fill="#2564eb" stroke="none">
<path d="M2215 4871 c-10 -10 -143 -59 -182 -68 -13 -3 -23 -9 -23 -14 0 -5
-16 -9 -35 -9 -44 0 -100 -28 -139 -69 -17 -17 -35 -31 -43 -31 -21 0 -80 -67
-94 -107 -6 -20 -20 -51 -30 -68 -13 -21 -19 -49 -19 -93 0 -34 -4 -70 -9 -80
-6 -9 -13 -38 -16 -64 -3 -27 -10 -48 -16 -48 -14 0 -11 -51 4 -69 22 -27 45
-113 45 -168 0 -29 7 -74 15 -100 32 -102 38 -142 25 -186 -6 -23 -15 -47 -19
-52 -4 -6 -19 -42 -33 -80 -19 -54 -25 -91 -27 -165 -1 -95 7 -166 20 -175 13
-8 -6 -98 -40 -190 l-34 -90 3 -224 c2 -123 7 -232 12 -241 5 -10 12 -42 16
-72 6 -53 5 -55 -44 -121 -33 -44 -52 -80 -56 -109 -4 -23 -25 -70 -46 -105
-22 -34 -40 -72 -40 -84 0 -12 -20 -46 -45 -75 -51 -59 -54 -81 -34 -203 12
-71 27 -111 46 -124 7 -4 10 -14 7 -21 -3 -8 2 -28 10 -45 12 -23 14 -36 6
-57 -14 -35 10 -74 44 -74 16 0 47 -22 90 -65 62 -60 67 -68 73 -117 8 -77 81
-221 143 -285 115 -118 313 -182 470 -152 36 6 108 12 161 12 80 1 102 -2 125
-19 16 -10 38 -21 48 -24 12 -4 25 -23 34 -50 20 -60 57 -108 171 -217 71 -69
103 -92 123 -93 22 0 33 -12 70 -75 23 -41 48 -75 55 -75 6 0 47 -25 91 -55
77 -53 82 -55 146 -55 61 0 97 10 149 40 9 5 25 14 35 19 9 5 17 18 16 30 0
18 5 21 36 21 32 0 38 4 53 35 20 42 21 67 5 83 -9 9 -9 12 -1 12 7 0 33 18
58 40 25 22 49 40 53 40 10 0 32 50 32 72 0 10 -10 20 -25 24 -22 5 -25 11
-25 54 0 47 -1 49 -54 84 -63 42 -92 75 -101 116 -4 17 -12 30 -19 30 -23 0
-46 36 -46 73 0 20 -5 39 -11 42 -5 4 -21 31 -35 60 -13 29 -36 63 -51 75 -17
13 -34 44 -48 85 -11 35 -24 67 -28 71 -4 4 -7 19 -7 34 0 15 -9 39 -21 54
-31 39 -41 84 -27 122 9 24 8 49 -1 105 -7 41 -12 97 -12 126 1 28 -3 54 -9
58 -5 3 -10 18 -10 32 0 31 -61 158 -89 186 -6 6 -11 20 -11 31 0 12 -7 34
-15 50 -8 15 -15 40 -15 54 0 38 -36 106 -78 147 -23 22 -41 51 -47 78 -7 26
-18 45 -31 51 -11 5 -27 21 -36 36 -8 15 -29 33 -45 40 -17 8 -35 27 -42 44
-7 17 -19 43 -26 57 -11 20 -12 34 -4 64 9 30 7 48 -9 94 -32 89 -37 157 -13
187 17 22 18 28 6 52 -12 23 -11 42 7 135 14 70 25 107 34 107 22 0 28 40 29
200 1 85 8 185 15 221 13 64 12 68 -11 100 -12 19 -26 36 -30 39 -12 10 -17
64 -7 80 7 11 7 23 1 34 -11 20 15 82 42 102 11 8 19 43 27 105 5 52 16 101
23 109 20 23 41 143 27 148 -7 2 -12 26 -12 60 -1 32 -7 68 -15 82 -8 14 -14
37 -15 51 0 16 -11 33 -30 47 -16 13 -30 29 -30 36 0 7 -7 19 -15 26 -9 8 -13
21 -9 33 3 10 1 29 -4 41 -6 11 -18 44 -27 73 -15 49 -19 53 -66 68 -28 10
-61 14 -78 10 -32 -7 -116 11 -146 32 -22 15 -175 18 -190 4z"/>
</g>
</svg>
