<?xml version="1.0" standalone="no"?>
<!DOCTYPE svg PUBLIC "-//W3C//DTD SVG 20010904//EN"
 "http://www.w3.org/TR/2001/REC-SVG-20010904/DTD/svg10.dtd">
<svg version="1.0" xmlns="http://www.w3.org/2000/svg"
 width="500.000000pt" height="500.000000pt" viewBox="0 0 500.000000 500.000000"
 preserveAspectRatio="xMidYMid meet">
<metadata>
Created by potrace 1.16, written by Peter Selinger 2001-2019
</metadata>
<g transform="translate(0.000000,500.000000) scale(0.100000,-0.100000)"
fill="#000000" stroke="none">
<path d="M2089 4447 c-14 -30 -61 -56 -93 -50 -23 5 -26 2 -26 -20 0 -17 -16
-42 -46 -74 -77 -81 -75 -75 -67 -128 5 -42 4 -48 -10 -42 -9 3 -19 2 -21 -2
-11 -17 -66 -20 -100 -6 -19 8 -37 11 -40 6 -10 -15 4 -40 25 -46 28 -9 54
-62 38 -81 -6 -8 -18 -14 -26 -14 -7 0 -16 -8 -20 -17 -3 -10 -13 -26 -21 -35
-8 -10 -12 -26 -9 -38 6 -25 3 -25 -31 -1 -15 11 -44 22 -66 26 -31 5 -43 2
-62 -16 -26 -24 -31 -48 -14 -65 8 -8 7 -19 0 -39 -6 -15 -7 -43 -4 -63 7 -34
6 -35 -22 -28 -47 12 -48 12 -52 -9 -2 -11 -11 -25 -20 -31 -9 -7 -13 -18 -9
-29 6 -15 18 -17 90 -14 72 4 82 2 79 -13 -1 -9 2 -19 8 -23 23 -14 -47 -99
-127 -154 -18 -12 -33 -31 -33 -41 0 -26 48 -80 71 -80 10 0 19 -6 19 -14 0
-7 7 -19 15 -26 13 -11 20 -9 38 9 32 29 70 27 99 -7 12 -15 38 -38 56 -50 17
-13 32 -29 32 -35 0 -13 94 -87 110 -87 5 0 14 9 20 20 14 26 26 25 66 -5 33
-25 78 -33 89 -15 4 6 12 6 23 -1 22 -14 18 -91 -4 -82 -8 3 -17 -3 -20 -13
-4 -11 -16 -26 -26 -35 -14 -11 -18 -22 -13 -42 7 -25 59 -80 84 -88 8 -3 5
-18 -9 -46 -32 -67 -25 -112 27 -160 25 -24 31 -68 9 -76 -30 -12 -48 -164
-22 -186 8 -6 38 -16 67 -21 30 -4 65 -13 79 -18 l24 -9 -24 -13 c-15 -8 -43
-10 -81 -6 l-58 6 -21 -46 c-19 -45 -21 -46 -56 -40 -19 4 -42 10 -50 13 -7 3
-17 -2 -20 -12 -5 -12 16 -38 77 -95 73 -69 89 -79 121 -80 33 0 42 -6 69 -42
17 -24 34 -50 37 -58 3 -8 18 -34 34 -57 21 -31 36 -43 53 -43 18 0 32 -11 49
-39 14 -22 34 -42 44 -45 10 -4 29 -18 42 -31 19 -20 23 -35 21 -68 -2 -37 3
-48 38 -89 55 -62 64 -89 56 -173 -9 -101 -10 -102 -69 -121 -68 -22 -120 -13
-157 27 -15 16 -34 29 -42 29 -8 0 -34 11 -58 24 -24 14 -60 27 -80 31 -24 5
-41 15 -52 35 -18 30 -27 134 -13 163 6 13 -2 28 -37 62 l-44 45 -119 0 c-167
0 -209 -27 -146 -94 16 -17 33 -42 37 -56 4 -14 18 -45 31 -69 13 -24 24 -48
24 -53 0 -17 71 -80 85 -74 7 2 16 -2 19 -10 5 -12 11 -11 41 3 27 13 40 15
53 7 26 -17 39 -61 24 -84 -7 -11 -12 -42 -12 -68 0 -71 -29 -109 -119 -153
-82 -41 -142 -92 -125 -109 8 -8 19 -8 39 0 24 9 31 7 50 -10 16 -15 35 -20
81 -20 57 0 62 2 99 40 21 21 42 37 47 34 13 -8 9 -78 -7 -124 -18 -51 -19
-92 -3 -108 9 -9 9 -18 0 -37 -17 -37 -15 -66 7 -95 16 -20 22 -22 34 -12 8 7
18 28 21 46 6 33 36 68 69 79 42 15 77 -36 77 -114 0 -21 4 -40 9 -44 11 -6
58 12 83 33 20 17 38 8 38 -18 0 -44 111 -86 159 -61 11 7 37 37 57 68 29 46
35 63 33 100 -3 39 0 47 21 59 14 7 39 13 55 14 25 0 34 -7 50 -36 11 -20 18
-49 17 -64 -4 -33 22 -100 38 -100 32 0 50 22 50 59 0 25 7 44 20 56 20 18 22
18 66 -3 58 -29 66 -28 93 9 12 16 33 34 47 39 13 5 24 17 24 25 0 9 7 27 16
40 23 36 10 47 -51 43 -47 -3 -57 0 -82 23 -15 15 -44 32 -63 38 -19 6 -50 20
-68 31 -29 18 -32 24 -27 53 5 27 1 37 -24 61 -22 21 -31 39 -31 62 0 40 18
55 61 52 31 -3 34 0 37 27 2 22 -4 37 -23 55 -14 13 -25 33 -25 45 0 25 33 59
72 74 22 8 27 17 30 48 3 35 6 38 36 41 20 2 44 -4 60 -14 31 -21 133 -25 139
-7 3 7 -4 16 -14 19 -10 4 -28 16 -40 27 -31 28 -33 117 -3 147 11 11 17 26
14 34 -3 8 13 29 42 52 26 22 66 56 88 76 37 33 40 39 28 57 -11 19 -8 25 28
60 44 43 51 78 22 104 -21 19 -57 22 -67 7 -3 -5 -15 -10 -25 -10 -16 0 -18 5
-13 35 7 42 -9 65 -47 65 -32 0 -57 39 -37 59 9 10 6 17 -15 33 -16 11 -28 26
-28 33 0 8 -10 22 -22 32 -51 42 -66 122 -28 143 25 14 26 36 0 50 -19 10 -19
11 1 45 12 19 29 35 38 35 22 0 53 33 80 86 12 22 37 56 56 74 38 37 65 82 65
110 0 17 69 90 86 90 6 0 21 11 33 24 20 21 26 23 42 13 26 -16 54 2 54 34 0
16 -9 28 -27 37 -31 15 -36 45 -13 76 8 11 15 32 15 48 0 17 10 37 27 52 26
24 26 25 10 59 -10 19 -17 44 -17 54 0 22 -22 44 -63 61 -15 7 -36 25 -45 42
-13 23 -24 30 -49 30 -17 0 -35 5 -38 10 -3 6 -17 10 -29 10 -36 0 -48 21 -34
57 6 16 8 38 5 47 -6 16 -9 16 -36 0 -29 -17 -30 -17 -61 9 -24 20 -42 27 -76
27 -47 0 -127 16 -158 32 -12 6 -22 6 -29 -1 -6 -6 -26 -11 -44 -11 -26 0 -44
11 -90 55 -43 42 -60 52 -70 43 -17 -14 -16 -28 4 -50 15 -17 14 -19 -15 -29
-20 -7 -40 -25 -54 -50 -25 -45 -61 -51 -66 -11 -4 28 -49 52 -100 52 -29 0
-46 7 -63 25 -13 13 -29 25 -35 25 -13 0 -24 23 -24 50 0 10 -16 30 -36 45
-29 22 -35 32 -32 58 3 27 7 31 33 32 20 0 31 6 33 18 5 26 -16 47 -48 47 -31
0 -108 40 -135 70 -14 16 -16 23 -7 32 7 7 12 17 12 23 0 13 -91 75 -109 75
-6 0 -8 11 -5 28 7 35 -5 45 -77 61 -62 13 -96 32 -85 49 3 6 35 20 70 32 81
26 106 44 89 61 -21 21 -15 46 14 67 23 17 25 22 14 36 -19 23 -40 20 -52 -7z
m16 -29 c-14 -17 -24 -37 -21 -44 4 -8 8 -20 11 -26 3 -9 -18 -21 -62 -36 -70
-25 -103 -46 -103 -67 0 -15 56 -43 102 -51 18 -3 43 -10 55 -16 18 -9 20 -14
12 -30 -14 -26 -4 -48 21 -48 12 0 36 -12 55 -27 28 -22 31 -29 22 -44 -9 -15
-6 -24 18 -50 36 -37 115 -79 150 -79 18 0 25 -5 25 -20 0 -17 -3 -19 -19 -10
-16 8 -23 6 -35 -12 -25 -35 -19 -63 19 -97 19 -17 35 -37 35 -45 0 -26 23
-66 37 -66 7 0 13 -4 13 -10 0 -5 7 -10 15 -10 9 0 18 -7 21 -15 4 -10 20 -15
48 -15 64 0 86 -9 86 -35 0 -24 17 -35 54 -35 16 0 32 13 49 40 20 29 36 41
62 46 19 3 35 8 35 11 0 3 -9 18 -21 35 -12 16 -19 31 -16 34 3 3 16 -9 29
-26 44 -60 136 -98 166 -68 8 8 15 8 26 -1 8 -7 19 -10 24 -7 4 3 26 -1 48 -9
21 -8 59 -14 83 -15 32 0 56 -8 83 -26 37 -26 39 -26 58 -9 28 26 35 12 13
-25 l-18 -32 28 -23 c15 -14 34 -22 41 -19 8 3 17 1 21 -5 3 -6 17 -11 31 -11
16 0 39 -16 67 -45 24 -25 51 -45 60 -45 19 0 37 -29 37 -59 0 -12 5 -30 12
-40 10 -17 8 -23 -11 -38 -14 -12 -24 -34 -28 -60 -3 -24 -12 -48 -19 -54 -8
-6 -14 -24 -14 -39 0 -22 7 -31 30 -42 34 -15 41 -48 11 -48 -11 0 -23 5 -26
10 -4 6 -19 1 -38 -14 -18 -14 -51 -40 -74 -58 -30 -23 -48 -49 -63 -88 -12
-30 -39 -73 -61 -96 -22 -22 -50 -60 -63 -85 -15 -29 -36 -50 -60 -62 -23 -11
-43 -31 -54 -53 -16 -34 -16 -36 3 -50 18 -14 18 -14 -3 -37 -27 -28 -29 -82
-5 -117 9 -14 33 -45 53 -70 20 -25 37 -55 37 -67 3 -39 33 -73 66 -73 l30 0
-6 -51 -6 -51 37 6 c78 14 87 12 90 -12 3 -16 -9 -37 -37 -67 -43 -47 -49 -60
-28 -69 7 -3 -24 -38 -78 -90 -49 -46 -87 -88 -82 -92 4 -4 1 -14 -7 -23 -8
-9 -17 -43 -21 -77 -7 -60 -6 -61 30 -92 l36 -32 -33 0 c-18 0 -53 9 -77 20
-24 11 -54 20 -67 20 -26 0 -54 -34 -54 -65 0 -13 -13 -27 -36 -40 -34 -18
-64 -59 -64 -88 0 -7 11 -24 25 -37 14 -13 25 -34 25 -47 0 -19 -5 -23 -32
-23 -71 0 -92 -73 -37 -126 25 -24 30 -35 26 -60 -7 -40 17 -64 93 -94 30 -12
69 -35 86 -52 28 -26 35 -28 54 -18 12 6 33 9 46 6 24 -6 24 -7 8 -39 -9 -17
-26 -39 -38 -47 -12 -8 -31 -25 -44 -39 l-22 -24 -50 23 -50 24 -30 -29 c-23
-22 -30 -38 -30 -67 0 -31 -4 -38 -19 -38 -21 0 -31 26 -31 85 0 27 -9 53 -26
79 -25 36 -29 38 -67 33 -22 -3 -52 -14 -66 -25 -21 -15 -25 -26 -23 -59 2
-29 -4 -54 -24 -89 -41 -76 -43 -77 -96 -72 -52 5 -88 30 -88 59 0 10 -10 23
-21 30 -17 9 -26 7 -48 -9 -14 -10 -36 -22 -49 -26 -21 -7 -22 -5 -22 47 0 40
-6 61 -21 81 -43 55 -130 20 -150 -60 -13 -52 -22 -55 -39 -14 -10 24 -10 33
0 45 8 10 10 31 5 64 -5 36 -2 65 10 100 9 27 15 69 13 93 -4 58 -27 61 -83 9
-56 -51 -109 -56 -157 -15 -17 14 -37 23 -44 20 -50 -20 -50 -20 -29 3 11 13
55 41 97 62 96 48 123 83 131 163 3 32 11 64 16 69 18 18 12 54 -15 86 -29 34
-49 38 -81 16 -14 -10 -24 -12 -28 -5 -3 5 -14 10 -24 10 -28 0 -66 49 -109
140 -22 47 -50 94 -61 104 -27 25 -27 52 2 60 12 3 73 6 135 6 l113 0 35 -36
c26 -25 34 -40 28 -52 -5 -9 -7 -43 -6 -76 4 -75 36 -136 72 -136 14 0 54 -14
88 -30 35 -17 68 -30 72 -30 5 0 22 -13 38 -30 26 -26 38 -30 84 -30 78 0 125
16 142 48 7 15 17 59 21 98 8 85 -6 126 -65 190 -41 45 -47 62 -30 94 12 23
-14 58 -62 84 -18 10 -42 32 -53 50 -11 17 -29 32 -40 34 -30 6 -53 30 -92 97
-48 83 -80 115 -116 115 -21 0 -43 12 -76 43 -25 23 -62 54 -81 68 -41 31 -37
44 9 28 40 -14 79 8 87 50 6 29 7 29 65 24 61 -6 109 12 109 41 0 16 -42 36
-76 36 -30 0 -89 23 -98 39 -10 15 14 122 31 142 22 26 16 85 -10 106 -35 27
-48 73 -33 117 7 20 18 42 24 48 21 21 14 48 -12 48 -25 0 -76 50 -76 75 0 19
47 65 65 65 11 0 15 12 15 40 0 22 5 40 10 40 18 0 10 22 -10 27 -12 3 -20 14
-20 26 0 20 0 20 -23 -1 -23 -22 -77 -30 -77 -12 0 10 -52 40 -69 40 -6 0 -19
-10 -31 -22 l-20 -22 -27 25 c-15 13 -63 59 -107 102 -67 64 -86 77 -113 77
-22 0 -36 -6 -43 -20 -14 -27 -24 -25 -38 5 -7 14 -20 25 -31 25 -11 0 -27 10
-35 22 -18 25 -21 58 -7 58 16 0 131 112 148 143 11 23 12 31 3 37 -7 4 -10
12 -6 18 14 22 -24 35 -87 29 -68 -7 -106 5 -74 24 9 5 17 17 17 25 0 11 4 12
19 4 38 -20 96 -6 62 14 -5 3 -7 15 -4 26 3 11 0 20 -6 20 -9 0 -9 5 0 21 6
12 9 38 5 57 -8 52 14 74 68 65 23 -3 53 -15 68 -26 32 -24 46 -17 40 21 -2
18 2 33 12 41 9 8 16 19 16 27 0 7 10 14 23 16 17 2 23 11 25 36 3 28 -3 39
-35 69 -27 26 -31 32 -13 23 29 -15 97 -15 116 1 8 6 14 8 14 4 0 -4 7 -2 16
5 11 10 14 23 9 50 -5 30 -1 45 20 76 14 21 39 50 55 64 16 14 30 36 32 50 2
18 8 24 22 22 31 -6 76 19 92 50 8 16 19 26 25 23 5 -4 -2 -20 -16 -37z"/>
</g>
</svg>
