<svg xmlns="http://www.w3.org/2000/svg" width="100" height="100"><g transform="translate(-601.052 -387.788)"><g transform="translate(682.215 5.76)"><rect width="63.214" height="40.714" x="-61.758" y="413.183" fill="#404040" fill-rule="evenodd" stroke="#000" stroke-linecap="round" stroke-linejoin="round" stroke-width=".8" rx="3.599" ry="3.599"/><rect width="3.238" height="17.752" x="-5.469" y="424.873" fill="#d0d0d0" fill-rule="evenodd" rx="4.66" ry="0"/><rect width="3.238" height="17.752" x="-11.951" y="424.873" fill="#d0d0d0" fill-rule="evenodd" rx="4.66" ry="0"/></g><g transform="scale(.97506 1.02557)" style="line-height:125%" fill="#d0d0d0" font-family="Sans" font-size="8.528" font-weight="400" letter-spacing="0" word-spacing="0"><path d="M638.07841 421.61073l1.79051 0 .64542 3.4103.94106-3.4103 1.78635 0 .94523 3.4103.64541-3.4103 1.78219 0-1.34497 6.1044-1.84881 0-1.07014-3.84336-1.06598 3.84336-1.84881 0zM647.23085 421.61073l5.05508 0 0 1.30332-3.16463 0 0 .97021 2.93561 0 0 1.24503-2.93561 0 0 1.2034 3.25624 0 0 1.38244-5.14669 0zM653.06876 425.6956l1.79468-.11243c.0389.29148.11798.51356.23735.66624.19431.24706.47191.37059.83279.37059.26927 0 .47678-.0632.62252-.18946.14574-.12631.21861-.27274.21861-.4393 0-.15823-.0694-.2998-.2082-.42473-.1388-.12491-.46082-.24289-.96604-.35394-.82725-.18598-1.41715-.43305-1.7697-.74119-.35533-.30813-.53299-.70093-.53299-1.1784 0-.31369.0909-.61002.27274-.88901.18183-.27899.45526-.49829.82031-.65791.36504-.15962.86541-.23943 1.50111-.23943.78005 0 1.37481.14505 1.78427.43513.40946.2901.65305.75161.73078 1.38453l-1.77802.1041c-.0472-.27482-.14644-.47469-.29773-.59962-.15129-.12491-.36018-.18737-.62668-.18738-.2193.00001-.38447.0465-.49551.1395-.11104.093-.16656.20612-.16656.33936 0 .0972.0458.18461.13741.26233.0888.0805.29981.15546.63293.22486.82446.17767 1.41506.35741 1.77178.53924.3567.18183.61626.40738.77866.67664.16239.26928.24359.57047.24359.90359 0 .39142-.10827.75229-.32479 1.08264-.21653.33034-.51911.58087-.90775.7516-.38864.17072-.8786.25608-1.46988.25608-1.03823 0-1.75721-.19987-2.15695-.59961-.39974-.39975-.62599-.90775-.67873-1.52402zM659.13153 421.61073l5.73381 0 0 1.50736-1.92377 0 0 4.59704-1.88628 0 0-4.59704-1.92376 0zM665.71895 421.61073l5.05509 0 0 1.30332-3.16463 0 0 .97021 2.93561 0 0 1.24503-2.93561 0 0 1.2034 3.25623 0 0 1.38244-5.14669 0zM671.91081 427.71513l0-6.1044 3.14381 0c.58295 0 1.0285.05 1.33664.1499.30813.0999.55658.28524.74535.55589.18876.27067.28314.60031.28315.98895-.00001.33867-.0722.63085-.21653.87652-.14435.24568-.34284.44485-.59545.59753-.16101.0972-.3817.17767-.66207.24151.22485.075.38863.14991.49135.22486.0694.05.17002.15684.30189.32062.13185.16379.21999.2901.26441.37893l.91192 1.76969-2.13197 0-1.00768-1.86547c-.1277-.2415-.24152-.39835-.34145-.47053-.13602-.0944-.29009-.14157-.4622-.14157l-.16656 0 0 2.47757zm1.89461-3.631l.79532 0c.0861.00001.25261-.0278.49968-.0833.12492-.025.22693-.0888.30605-.19154.0791-.10271.11867-.22069.11868-.35394-.00001-.19709-.0625-.34838-.18738-.45387-.12493-.10549-.3595-.15823-.70372-.15823l-.82863 0zM678.52738 421.61073l1.76137 0 2.29852 3.37699 0-3.37699 1.77802 0 0 6.1044-1.77802 0-2.28603-3.35201 0 3.35201-1.77386 0zM657.83653 429.56508l1.88212 0 0 3.63932c-.00001.36088-.0562.70164-.16864 1.02226-.11244.32063-.28871.601-.52883.84113-.24013.24012-.49205.40876-.75576.50592-.36644.13602-.80643.20404-1.31999.20404-.29703 0-.62113-.0208-.97229-.0625-.35116-.0416-.64472-.12423-.88068-.24776-.23596-.12353-.4518-.29911-.6475-.52675-.19571-.22763-.32965-.4622-.40183-.70371-.11659-.38864-.17488-.73286-.17488-1.03267l0-3.63932 1.88212 0 0 3.72677c0 .33312.0923.59337.2769.78074.1846.18738.44069.28107.76826.28107.32479 0 .57948-.0923.76409-.2769.1846-.1846.2769-.44624.27691-.78491zM660.98866 429.56508l1.76137 0 2.29852 3.37699 0-3.37699 1.77803 0 0 6.1044-1.77803 0-2.28603-3.35201 0 3.35201-1.77386 0zM668.16322 429.56508l1.89045 0 0 6.1044-1.89045 0zM671.16545 432.62144c0-.99657.2776-1.77246.8328-2.32767.55519-.55519 1.32831-.83279 2.31934-.83279 1.01601 0 1.79884.27274 2.34849.81822.54964.54549.82446 1.30958.82447 2.29228-.00001.71343-.12007 1.29847-.36019 1.75512-.24013.45665-.58713.81197-1.04099 1.06598-.45388.254-1.01949.381-1.69683.381-.68845 0-1.25822-.10965-1.70932-.32895-.4511-.21931-.81683-.5663-1.09721-1.041-.28037-.47469-.42056-1.06875-.42056-1.78219zm1.88629.008c-.00001.61627.1145 1.05904.34353 1.32831.22901.26928.54062.40391.93481.40391.40529 0 .71898-.13186.94106-.39558.22208-.26372.33312-.73702.33312-1.41992 0-.57463-.1159-.99449-.34769-1.2596-.2318-.26511-.54618-.39766-.94315-.39767-.38031.00001-.68567.13464-.91607.40391-.23041.26928-.34562.71482-.34561 1.33664zM678.52738 429.56508l1.76137 0 2.29852 3.37699 0-3.37699 1.77802 0 0 6.1044-1.77802 0-2.28603-3.35201 0 3.35201-1.77386 0z" style="text-align:end;line-height:125%;-inkscape-font-specification:'Arial Black, Heavy'" font-family="Arial Black" font-weight="900" text-anchor="end"/></g></g></svg>